<svg xmlns="http://www.w3.org/2000/svg" width="26" height="22.534" viewBox="0 0 26 22.534">
  <g id="wallet-ic" transform="translate(4641.998 555.195)">
    <path id="Path_1240" data-name="Path 1240" d="M185.9,156.928h18.2a3.9,3.9,0,0,0,3.9-3.9V138.294a3.9,3.9,0,0,0-3.9-3.9H185.9a3.9,3.9,0,0,0-3.9,3.9v14.733a3.9,3.9,0,0,0,3.9,3.9Zm18.2-2.6H185.9a1.3,1.3,0,0,1-1.3-1.3v-9.533h20.8v9.533a1.3,1.3,0,0,1-1.3,1.3Zm-18.2-17.333h18.2a1.3,1.3,0,0,1,1.3,1.3v2.6H184.6v-2.6a1.3,1.3,0,0,1,1.3-1.3Z" transform="translate(-4823.999 -689.589)" fill="#4ad594"/>
    <path id="Path_1241" data-name="Path 1241" d="M266,308h6.067v2.6H266Z" transform="translate(-4901.498 -849.761)" fill="#4ad594"/>
  </g>
</svg>
