<svg id="veri-code-ic" xmlns="http://www.w3.org/2000/svg" width="63.25" height="85.47" viewBox="0 0 63.25 85.47">
  <g id="Group_458" data-name="Group 458">
    <path id="Union_1" data-name="Union 1" d="M1930.012,1906.448a3.325,3.325,0,0,0,.057,6.65h.067a3.325,3.325,0,0,0-.125-6.65Zm0,0a3.325,3.325,0,0,0,.057,6.65h.067a3.325,3.325,0,0,0-.125-6.65Zm25.19-41.671v-20.457a8.618,8.618,0,0,0-8.681-8.537H1913.6a8.629,8.629,0,0,0-8.7,8.537v68.4a8.615,8.615,0,0,0,8.7,8.528h32.913a8.619,8.619,0,0,0,8.691-8.528v-20.457h-5.232v20.457h.019a3.435,3.435,0,0,1-3.469,3.4h-32.932a3.441,3.441,0,0,1-3.469-3.4v-68.4a3.464,3.464,0,0,1,3.478-3.411h6.563l.326,1.638a2.117,2.117,0,0,0,2.156,1.562h14.8a2.107,2.107,0,0,0,2.156-1.562l.326-1.638h6.564a3.464,3.464,0,0,1,3.478,3.411v20.457Zm-28.458,45.053a3.3,3.3,0,0,0,3.325,3.268h.067a3.325,3.325,0,1,0-3.392-3.268Z" transform="translate(-1904.898 -1835.782)" fill="#17151f"/>
    <g id="Group_458-2" data-name="Group 458" transform="translate(32.223 31.139)">
      <path id="Subtraction_1" data-name="Subtraction 1" d="M1102.113,1999.8h-21.979a1.223,1.223,0,0,1-1.222-1.221v-14.652a7.335,7.335,0,0,1,7.327-7.326h15.874a7.334,7.334,0,0,1,7.326,7.326v8.546A7.335,7.335,0,0,1,1102.113,1999.8Zm-1.832-13.432a1.832,1.832,0,1,0,1.832,1.832A1.834,1.834,0,0,0,1100.281,1986.364Zm-6.1,0a1.832,1.832,0,1,0,1.832,1.832A1.834,1.834,0,0,0,1094.176,1986.364Zm-6.106,0a1.832,1.832,0,1,0,1.832,1.832A1.834,1.834,0,0,0,1088.07,1986.364Z" transform="translate(-1078.912 -1976.596)" fill="#4ad594" stroke="rgba(0,0,0,0)" stroke-width="1"/>
    </g>
  </g>
</svg>
