<svg xmlns="http://www.w3.org/2000/svg" width="26" height="25.876" viewBox="0 0 26 25.876">
  <g id="order-history-ic" transform="translate(4664.517 491.724)">
    <path id="Path_1245" data-name="Path 1245" d="M318.022,190.4a1.625,1.625,0,0,0-1.625,1.625v4.061a3.655,3.655,0,0,0,3.655,3.655H322.9a1.624,1.624,0,0,0,0-3.249h-2.843a.406.406,0,0,1-.406-.406v-4.061a1.624,1.624,0,0,0-1.624-1.625" transform="translate(-4970.356 -675.628)" fill="#4ad594"/>
    <path id="Path_1246" data-name="Path 1246" d="M172.433,126.407h3.655a4.467,4.467,0,0,0,4.467-4.467v-3.655a1.624,1.624,0,1,0-3.249,0v2.8h0a9.746,9.746,0,1,1,7.907,2.38,1.624,1.624,0,0,0-1.409,1.592v.045h0a1.624,1.624,0,0,0,1.852,1.584,13,13,0,1,0-10.879-3.525h-2.343a1.624,1.624,0,0,0,0,3.249" transform="translate(-4835.326 -592.547)" fill="#4ad594"/>
  </g>
</svg>
