<svg xmlns="http://www.w3.org/2000/svg" width="26" height="27.745" viewBox="0 0 26 27.745">
  <g id="settings-ic" transform="translate(4605.458 535)">
    <path id="Path_1247" data-name="Path 1247" d="M201.03,124.241a4.621,4.621,0,0,0,5.687-1.99l.737-1.27h0a4.652,4.652,0,0,0-1.11-5.922V114.3a4.652,4.652,0,0,0,1.118-5.922l-.733-1.27h0a4.635,4.635,0,0,0-4-2.311,4.578,4.578,0,0,0-1.686.321c-.212-.134-.434-.26-.655-.377a4.656,4.656,0,0,0-4.582-3.932H194.34a4.651,4.651,0,0,0-4.569,3.932c-.221.117-.434.243-.655.377a4.578,4.578,0,0,0-1.686-.321,4.634,4.634,0,0,0-4,2.311l-.733,1.27A4.651,4.651,0,0,0,183.8,114.3v.763a4.652,4.652,0,0,0-1.118,5.922l.733,1.27h0a4.622,4.622,0,0,0,5.688,1.99c.212.134.434.26.655.377a4.651,4.651,0,0,0,4.582,3.932h1.47a4.651,4.651,0,0,0,4.569-3.932c.217-.117.438-.243.65-.377Zm-5.224.841H194.34a1.157,1.157,0,0,1-1.14-.988,3.378,3.378,0,0,0-1.734-2.51c-.178-.1-.356-.2-.525-.3h0a3.391,3.391,0,0,0-3.056-.269,1.171,1.171,0,0,1-1.431-.49l-.733-1.27h0a1.158,1.158,0,0,1,.247-1.491,3.377,3.377,0,0,0,1.3-2.783v-.594a3.382,3.382,0,0,0-1.3-2.787,1.158,1.158,0,0,1-.286-1.483l.737-1.27a1.188,1.188,0,0,1,1.426-.494,3.385,3.385,0,0,0,3.061-.269q.256-.161.525-.3a3.368,3.368,0,0,0,1.734-2.506,1.162,1.162,0,0,1,1.175-1h1.47a1.157,1.157,0,0,1,1.14.988,3.374,3.374,0,0,0,1.734,2.51c.178.1.356.2.525.3h0a3.381,3.381,0,0,0,3.056.269,1.175,1.175,0,0,1,1.431.49l.733,1.27h0a1.157,1.157,0,0,1-.251,1.491,3.377,3.377,0,0,0-1.3,2.783v.6a3.372,3.372,0,0,0,1.3,2.783,1.162,1.162,0,0,1,.286,1.483l-.737,1.27a1.193,1.193,0,0,1-1.426.494,3.381,3.381,0,0,0-3.061.269q-.256.161-.529.3a3.372,3.372,0,0,0-1.734,2.506,1.161,1.161,0,0,1-1.171,1Z" transform="translate(-4787.531 -635.806)" fill="#4ad594"/>
    <path id="Path_1248" data-name="Path 1248" d="M293.2,218a5.2,5.2,0,1,0-1.524,3.678A5.2,5.2,0,0,0,293.2,218Zm-5.2,1.734a1.733,1.733,0,1,1,1.226-.508A1.735,1.735,0,0,1,288,219.736Z" transform="translate(-4880.461 -739.13)" fill="#4ad594"/>
  </g>
</svg>
