<svg xmlns="http://www.w3.org/2000/svg" width="26" height="27.739" viewBox="0 0 26 27.739">
  <path id="home-ic" d="M205.864,107.372l-7.73-5.633a5.322,5.322,0,0,0-6.266,0l-7.73,5.633h0a5.2,5.2,0,0,0-2.132,4.186v12.567a4.333,4.333,0,0,0,4.333,4.333h17.333a4.333,4.333,0,0,0,4.333-4.333V111.558a5.2,5.2,0,0,0-2.141-4.186Zm-1.326,16.753a.866.866,0,0,1-.867.867H186.338a.866.866,0,0,1-.867-.867V111.559a1.733,1.733,0,0,1,.715-1.4l7.73-5.633h0a1.855,1.855,0,0,1,2.167,0l7.73,5.633a1.734,1.734,0,0,1,.724,1.4Z" transform="translate(-182.005 -100.719)" fill="#4ad594"/>
</svg>
