<svg xmlns="http://www.w3.org/2000/svg" width="26" height="24.375" viewBox="0 0 26 24.375">
  <g id="my-vehicles-ic" transform="translate(4914.728 421.905)">
    <path id="Path_1242" data-name="Path 1242" d="M192.432,114.248A4.038,4.038,0,0,0,188.8,112H178.81a4.038,4.038,0,0,0-3.632,2.247l-3.157,6.341a11.429,11.429,0,0,0-1.219,5.086v7.45a3.25,3.25,0,0,0,3.25,3.25h3.25a3.25,3.25,0,0,0,3.25-3.25h6.5a3.25,3.25,0,0,0,3.25,3.25h3.25a3.25,3.25,0,0,0,3.25-3.25v-7.447a11.427,11.427,0,0,0-1.219-5.086Zm1.121,18.878H190.3v-3.25h-13v3.25h-3.25v-7.447a8.163,8.163,0,0,1,.857-3.632l3.173-6.346h0a.812.812,0,0,1,.727-.451H188.8a.812.812,0,0,1,.727.451l3.173,6.346h0a8.162,8.162,0,0,1,.857,3.632Z" transform="translate(-5085.531 -533.906)" fill="#4ad594"/>
    <path id="Path_1243" data-name="Path 1243" d="M264.054,270.629a1.828,1.828,0,1,1-1.828-1.828,1.828,1.828,0,0,1,1.828,1.828" transform="translate(-5168.626 -679.331)" fill="#4ad594"/>
    <path id="Path_1244" data-name="Path 1244" d="M392.854,270.629a1.828,1.828,0,1,1-1.828-1.828,1.828,1.828,0,0,1,1.828,1.828" transform="translate(-5288.083 -679.331)" fill="#4ad594"/>
  </g>
</svg>
