<svg id="Oil_Change_Service-ic" data-name="Oil Change Service-ic" xmlns="http://www.w3.org/2000/svg" width="32" height="32" viewBox="0 0 32 32">
  <path id="Path_1229" data-name="Path 1229" d="M197.09,270.859a2.082,2.082,0,0,0-.972-1.782,1.854,1.854,0,0,0-1.945,0,2.082,2.082,0,0,0-.972,1.782c0,4.727,6.851,7.2,13.616,7.2s13.616-2.474,13.616-7.2a2.082,2.082,0,0,0-.972-1.782,1.854,1.854,0,0,0-1.945,0,2.082,2.082,0,0,0-.972,1.782c0,.792-3.346,3.086-9.726,3.086S197.09,271.652,197.09,270.859Z" transform="translate(-190.813 -253.968)" fill="#4ad594"/>
  <path id="Path_1230" data-name="Path 1230" d="M168.2,380.3a31.868,31.868,0,0,0,30.034,0h0a2.11,2.11,0,0,0,0-3.565,1.882,1.882,0,0,0-1.961,0,28.168,28.168,0,0,1-26.116,0h0a1.88,1.88,0,0,0-1.488-.206,1.978,1.978,0,0,0-1.191.959,2.147,2.147,0,0,0-.2,1.562,2.048,2.048,0,0,0,.914,1.25Z" transform="translate(-167.218 -352.06)" fill="#4ad594"/>
  <path id="Path_1231" data-name="Path 1231" d="M286.005,109.969c0-3.2-2.788-6.4-4.892-8.364h0a3.416,3.416,0,0,0-4.63,0c-2.093,1.965-4.881,5.165-4.881,8.364a7.2,7.2,0,1,0,14.4,0Zm-10.288,0c0-1.312,1.44-3.251,3.086-4.886,1.631,1.625,3.086,3.6,3.086,4.886a3.086,3.086,0,0,1-6.173,0Z" transform="translate(-262.802 -100.701)" fill="#4ad594"/>
</svg>
