<svg xmlns="http://www.w3.org/2000/svg" width="20" height="20" viewBox="0 0 20 20">
  <g id="uncheck" transform="translate(-6 -2)" fill="none">
    <path d="M23.5,2H8.5A2.5,2.5,0,0,0,6,4.5v15A2.5,2.5,0,0,0,8.5,22h15A2.5,2.5,0,0,0,26,19.5V4.5A2.5,2.5,0,0,0,23.5,2Z" stroke="none"/>
    <path d="M 8.5 3.999998092651367 C 8.224300384521484 3.999998092651367 8 4.224298477172852 8 4.499998092651367 L 8 19.4999885559082 C 8 19.77569961547852 8.224300384521484 20 8.5 20 L 23.5 20 C 23.77569961547852 20 24 19.77569961547852 24 19.4999885559082 L 24 4.499998092651367 C 24 4.224298477172852 23.77569961547852 3.999998092651367 23.5 3.999998092651367 L 8.5 3.999998092651367 M 8.5 1.999998092651367 L 23.5 1.999998092651367 C 24.88071060180664 1.999998092651367 26 3.119289398193359 26 4.499998092651367 L 26 19.4999885559082 C 26 20.88070869445801 24.88071060180664 22 23.5 22 L 8.5 22 C 7.119289398193359 22 6 20.88070869445801 6 19.4999885559082 L 6 4.499998092651367 C 6 3.119289398193359 7.119289398193359 1.999998092651367 8.5 1.999998092651367 Z" stroke="none" fill="#ededed"/>
  </g>
</svg>
