<svg xmlns="http://www.w3.org/2000/svg" width="26" height="26.398" viewBox="0 0 26 26.398">
  <g id="gorex-ico" transform="translate(-55 -400.001)">
    <g id="Group_2563" data-name="Group 2563" transform="translate(55 400.001)">
      <g id="Group_2565" data-name="Group 2565" transform="translate(0 0)">
        <path id="Path_1774" data-name="Path 1774" d="M19.344,18.933l-.886.784A9.947,9.947,0,0,1,16.473,20.9a7.114,7.114,0,0,1-3.105.581A7.6,7.6,0,0,1,10.3,20.75,9.3,9.3,0,0,1,7.52,18.744a9.148,9.148,0,0,1-1.9-2.771,7.464,7.464,0,0,1-.664-3.023,7.339,7.339,0,0,1,.63-3.014A8.681,8.681,0,0,1,7.529,7.189a7.957,7.957,0,0,1,3.556-2.107,9.546,9.546,0,0,1,3.023-.262A1.047,1.047,0,0,0,15.242,3.9l.3-2.665A1.048,1.048,0,0,0,14.617.082,12.814,12.814,0,0,0,9.608.5,12.789,12.789,0,0,0,4.259,3.725,14.1,14.1,0,0,0,1.144,8.148,13.064,13.064,0,0,0,.005,13.085a12.764,12.764,0,0,0,3.721,9.356A12.755,12.755,0,0,0,12.98,26.4a13.389,13.389,0,0,0,6.364-1.678A.706.706,0,0,0,19.7,24.1v-5.01a.214.214,0,0,0-.356-.16" transform="translate(0 -0.001)" fill="#ffae00"/>
        <path id="Path_1775" data-name="Path 1775" d="M49.229,32.848H38.764a1.045,1.045,0,0,0-1.047,1.046v2.364a1.045,1.045,0,0,0,1.047,1.047h6.749v6.207a.5.5,0,0,0,.822.385,12.961,12.961,0,0,0,3.94-6.016V33.894a1.046,1.046,0,0,0-1.046-1.046" transform="translate(-24.275 -21.142)" fill="#ffae00"/>
      </g>
    </g>
  </g>
</svg>
