<svg xmlns="http://www.w3.org/2000/svg" width="32" height="32" viewBox="0 0 32 32">
  <g id="clear-delete-ic" transform="translate(-80.82 113)">
    <path id="Path_1255" data-name="Path 1255" d="M201.778,109.644a10.306,10.306,0,0,0-8.49-8.495,42.175,42.175,0,0,0-13.873,0,10.305,10.305,0,0,0-8.489,8.495,42.254,42.254,0,0,0,0,13.882,10.306,10.306,0,0,0,8.489,8.495,43.021,43.021,0,0,0,13.893-.02,10.306,10.306,0,0,0,8.489-8.5,42.858,42.858,0,0,0-.02-13.861Zm-3.92,13.227a6.31,6.31,0,0,1-5.2,5.207,39.757,39.757,0,0,1-12.565,0,6.31,6.31,0,0,1-5.2-5.207,38.251,38.251,0,0,1,0-12.567,6.31,6.31,0,0,1,5.2-5.212,38.181,38.181,0,0,1,12.559,0,6.31,6.31,0,0,1,5.209,5.207,39.834,39.834,0,0,1,0,12.572Z" transform="translate(-89.531 -213.575)" fill="#ff2c3c"/>
    <path id="Path_1256" data-name="Path 1256" d="M294.193,213.366a2,2,0,0,0-2.827,0l-2.582,2.582-2.582-2.582a2,2,0,0,0-2.827,2.827l2.582,2.582-2.582,2.582a2,2,0,0,0,2.827,2.827l2.582-2.582,2.582,2.582a2,2,0,0,0,2.827-2.827l-2.582-2.582,2.582-2.582a2,2,0,0,0,0-2.827Z" transform="translate(-191.943 -315.765)" fill="#ff2c3c"/>
  </g>
</svg>
