<svg xmlns="http://www.w3.org/2000/svg" width="20.709" height="20.708" viewBox="0 0 20.709 20.708">
  <g id="close-menu-ic" transform="translate(-19.7 -56.917)">
    <path id="Path_2" data-name="Path 2" d="M84.445,244.709l23.053.122a1.528,1.528,0,1,1,0,3.056l-23.053-.122a1.537,1.537,0,0,1-1.528-1.528A1.51,1.51,0,0,1,84.445,244.709Z" transform="translate(-76.243 309.292) rotate(-135)" fill="#fff"/>
    <path id="Path_1" data-name="Path 1" d="M84.445,244.709l23.053.122a1.528,1.528,0,1,1,0,3.056l-23.053-.122a1.537,1.537,0,0,1-1.528-1.528A1.51,1.51,0,0,1,84.445,244.709Z" transform="translate(-211.966 -39.026) rotate(-45)" fill="#fff"/>
  </g>
</svg>
