<svg xmlns="http://www.w3.org/2000/svg" width="26" height="30.45" viewBox="0 0 26 30.45">
  <g id="offers-ic" transform="translate(4603.727 367)">
    <path id="Path_1251" data-name="Path 1251" d="M274.97,192.083a1.685,1.685,0,1,1-1.685-1.685,1.686,1.686,0,0,1,1.685,1.685" transform="translate(-4869.068 -549.694)" fill="#4ad594"/>
    <path id="Path_1252" data-name="Path 1252" d="M392.57,276.083a1.685,1.685,0,1,1-1.685-1.685,1.685,1.685,0,0,1,1.685,1.685" transform="translate(-4976.557 -626.472)" fill="#4ad594"/>
    <path id="Path_1253" data-name="Path 1253" d="M296.691,184.038l-2.2-1.873-8.724,10.472L288,194.472Z" transform="translate(-4882.016 -542.169)" fill="#4ad594"/>
    <path id="offers-ic-2" data-name="offers-ic" d="M211.8,131.25l3.852-3.852,3.852,3.852,5.3-5.3V106.1a5.3,5.3,0,0,0-5.3-5.3H204.1a5.3,5.3,0,0,0-5.3,5.3v19.857l5.3,5.3,3.852-3.852Zm-10.111-6.49V106.1a2.408,2.408,0,0,1,2.407-2.407h15.408a2.408,2.408,0,0,1,2.407,2.407V124.76l-2.407,2.407-3.852-3.852-3.852,3.852-3.852-3.852-3.852,3.852Z" transform="translate(-4802.531 -467.8)" fill="#4ad594"/>
  </g>
</svg>
