<svg xmlns="http://www.w3.org/2000/svg" width="106.679" height="160.906" viewBox="0 0 106.679 160.906">
  <g id="verified-ic" transform="translate(-174.692 -384.664)">
    <g id="Group_461" data-name="Group 461" transform="translate(174.692 364.664)">
      <g id="Group_461-2" data-name="Group 461" transform="translate(0 0)">
        <path id="Path_814" data-name="Path 814" d="M2092.5,1915.822a6.157,6.157,0,0,1-1.054,3.644,6.343,6.343,0,0,1-5.235,2.9h-.13a6.424,6.424,0,1,1,6.419-6.548Z" transform="translate(-2037.484 -1773.113)" fill="#17151f"/>
        <path id="Path_815" data-name="Path 815" d="M2137.211,1855.782h-63.558a16.658,16.658,0,0,0-16.8,16.482v112.054a16.63,16.63,0,0,0,16.8,16.463h39.16a38.763,38.763,0,0,1-1.923-9.9h-37.255a6.642,6.642,0,0,1-6.7-6.566V1872.264a6.687,6.687,0,0,1,6.714-6.585h12.671l.629,3.164a4.086,4.086,0,0,0,4.162,3.015h28.578a4.067,4.067,0,0,0,4.163-3.015l.629-3.164h12.67a6.687,6.687,0,0,1,6.715,6.585v82l10.1,4.476v-86.471A16.638,16.638,0,0,0,2137.211,1855.782Z" transform="translate(-2056.858 -1835.781)" fill="#17151f"/>
      </g>
      <path id="Path_813" data-name="Path 813" d="M2112.815,1905.682l-21.113,9.384v14.075c0,13.019,9.008,25.194,21.113,28.149,12.1-2.955,21.113-15.131,21.113-28.149v-14.075Zm-4.691,37.533-9.384-9.384,3.307-3.307,6.077,6.052,15.458-15.458,3.308,3.331Z" transform="translate(-2027.249 -1776.384)" fill="#4ad594"/>
    </g>
  </g>
</svg>
