<svg xmlns="http://www.w3.org/2000/svg" xmlns:xlink="http://www.w3.org/1999/xlink" width="201.846" height="51.602" viewBox="0 0 201.846 51.602">
  <defs>
    <clipPath id="clip-path">
      <rect id="Rectangle_364" data-name="Rectangle 364" width="201.846" height="51.602" fill="none"/>
    </clipPath>
  </defs>
  <g id="logo" transform="translate(0 0)">
    <g id="Group_561" data-name="Group 561" transform="translate(0 0)" clip-path="url(#clip-path)">
      <path id="Path_998" data-name="Path 998" d="M115.726,29.543a18.981,18.981,0,0,0-4.252-6.061A20.591,20.591,0,0,0,89.73,19.419a20.231,20.231,0,0,0-6.25,4.063,18.422,18.422,0,0,0-4.205,6.061,18.756,18.756,0,0,0-1.534,7.6,19,19,0,0,0,1.534,7.633,18.392,18.392,0,0,0,4.205,6.1,20.346,20.346,0,0,0,27.994,0,18.944,18.944,0,0,0,4.252-6.1,18.687,18.687,0,0,0,1.563-7.633,18.452,18.452,0,0,0-1.563-7.6M106.265,41.2a9.982,9.982,0,0,1-2.008,3.163,8.768,8.768,0,0,1-3.021,2.083,9.383,9.383,0,0,1-3.76.748A9.026,9.026,0,0,1,90.593,44.4a10.012,10.012,0,0,1-2.643-7.187,10.289,10.289,0,0,1,2.643-7.255,8.921,8.921,0,0,1,6.884-2.869,9.1,9.1,0,0,1,3.76.786A9.271,9.271,0,0,1,104.258,30a9.953,9.953,0,0,1,2.008,3.2,10.775,10.775,0,0,1,.748,4.016,10.482,10.482,0,0,1-.748,3.987" transform="translate(-21.257 -4.903)" fill="#fff"/>
      <path id="Path_999" data-name="Path 999" d="M210.455,28.359a15.772,15.772,0,0,0-3.495-5.435,16.618,16.618,0,0,0-5.473-3.655,18.238,18.238,0,0,0-7.075-1.335,19.447,19.447,0,0,0-7.633,1.487,19.08,19.08,0,0,0-11.733,17.794,18.914,18.914,0,0,0,5.738,13.7,19.409,19.409,0,0,0,6.4,4.1,21.636,21.636,0,0,0,8.116,1.487,21.227,21.227,0,0,0,7.9-1.449,24.539,24.539,0,0,0,5.19-2.842,2.181,2.181,0,0,0,.587-2.888l-1.923-3.211a2.188,2.188,0,0,0-2.993-.757,20.5,20.5,0,0,1-2.983,1.505,14.7,14.7,0,0,1-5.474,1A11.85,11.85,0,0,1,188.825,46a9.163,9.163,0,0,1-3.722-5.436h23.524a2.853,2.853,0,0,0,2.831-2.424.033.033,0,0,1,.01-.028,21.705,21.705,0,0,0,.217-3.059,18.053,18.053,0,0,0-1.231-6.7M185.1,33.492a10.12,10.12,0,0,1,3.277-5.474,8.594,8.594,0,0,1,5.663-1.97,8.283,8.283,0,0,1,5.5,1.932,7.234,7.234,0,0,1,2.462,5.512Z" transform="translate(-47.863 -4.903)" fill="#fff"/>
      <path id="Path_1000" data-name="Path 1000" d="M159.8,17.93h-.035a20.06,20.06,0,0,0-14,5.543,18.682,18.682,0,0,0-5.736,13.668V54.614a1.816,1.816,0,0,0,1.816,1.816h6.57a1.816,1.816,0,0,0,1.816-1.816V37.176a10.281,10.281,0,0,1,2.644-7.221,8.929,8.929,0,0,1,6.889-2.864h1.012a1.817,1.817,0,0,0,1.816-1.816V19.746a1.817,1.817,0,0,0-1.816-1.816Z" transform="translate(-38.289 -4.902)" fill="#fff"/>
      <path id="Path_1001" data-name="Path 1001" d="M271.34,21.23l-8.384,11.822a1.81,1.81,0,0,1-2.952,0l-4.423-6.227,5.682-8.012a2.089,2.089,0,0,1,1.705-.881h6.667a2.087,2.087,0,0,1,1.7,3.3" transform="translate(-69.884 -4.903)" fill="#fff"/>
      <path id="Path_1002" data-name="Path 1002" d="M252.856,37.183l-5.89,8.305-7.131,10.058a2.089,2.089,0,0,1-1.7.881h-6.667a2.09,2.09,0,0,1-1.7-3.3l11.317-15.948L229.759,21.226a2.09,2.09,0,0,1,1.7-3.3h6.667a2.063,2.063,0,0,1,1.7.881l7.131,10.057Z" transform="translate(-62.718 -4.902)" fill=Colors.DARKERGREEN/>
      <path id="Path_1003" data-name="Path 1003" d="M270.067,64.446H263.4a2.112,2.112,0,0,1-1.7-.881l-3.6-5.071a5.083,5.083,0,0,1,0-5.882l3.8-5.364,9.868,13.9a2.087,2.087,0,0,1-1.7,3.3" transform="translate(-70.316 -12.919)" fill="#fff"/>
      <path id="Path_1004" data-name="Path 1004" d="M36.08,38.539a19.468,19.468,0,0,1-3.881,2.3,13.923,13.923,0,0,1-6.07,1.136,14.871,14.871,0,0,1-6-1.421A18.189,18.189,0,0,1,14.7,36.638a17.873,17.873,0,0,1-3.721-5.417,14.578,14.578,0,0,1-1.3-5.91,14.362,14.362,0,0,1,1.231-5.89,16.963,16.963,0,0,1,3.807-5.369,15.55,15.55,0,0,1,6.951-4.12,18.674,18.674,0,0,1,5.909-.512,2.046,2.046,0,0,0,2.216-1.8l.578-5.208a2.047,2.047,0,0,0-1.8-2.254A25.045,25.045,0,0,0,18.78.982,25.005,25.005,0,0,0,8.325,7.28a27.573,27.573,0,0,0-6.09,8.646A25.554,25.554,0,0,0,.01,25.577,24.951,24.951,0,0,0,7.283,43.864,24.932,24.932,0,0,0,25.371,51.6a26.157,26.157,0,0,0,12.441-3.28,1.38,1.38,0,0,0,.695-1.205V37.32a.418.418,0,0,0-.7-.313Z" transform="translate(0 0)" fill="#fff"/>
      <path id="Path_1005" data-name="Path 1005" d="M60.711,33.54v7.794a25.336,25.336,0,0,1-7.7,11.76.98.98,0,0,1-1.608-.753V40.207H38.209a2.043,2.043,0,0,1-2.045-2.045V33.54a2.043,2.043,0,0,1,2.045-2.045H58.666a2.045,2.045,0,0,1,2.045,2.045" transform="translate(-9.888 -8.611)" fill=Colors.DARKERGREEN/>
    </g>
  </g>
</svg>
