<svg xmlns="http://www.w3.org/2000/svg" width="26" height="28.483" viewBox="0 0 26 28.483">
  <path id="support-ic" d="M110.785,45.161l7.758-5.242h13.879a3.324,3.324,0,0,0,3.333-3.333V20.13a3.324,3.324,0,0,0-3.333-3.333H113.088a3.324,3.324,0,0,0-3.333,3.333V44.585a.659.659,0,0,0,1.03.576ZM123.845,34.1a.622.622,0,0,1-.636.636h-1.636a.622.622,0,0,1-.636-.636V33.039a.622.622,0,0,1,.636-.636h1.636a.622.622,0,0,1,.636.636Zm-4.273-11.212a4.931,4.931,0,0,1,3.091-.909,4.735,4.735,0,0,1,3.243,1.03,3.552,3.552,0,0,1,1.182,2.788,3.412,3.412,0,0,1-.636,2,4.37,4.37,0,0,1-1.636,1.424,2.307,2.307,0,0,0-.758.788,2.119,2.119,0,0,0-.182.727.435.435,0,0,1-.454.394h-2a.438.438,0,0,1-.454-.485,2.669,2.669,0,0,1,.424-1.333,6.043,6.043,0,0,1,1.545-1.394,2.609,2.609,0,0,0,.909-.909,2.375,2.375,0,0,0,.333-1.242,1.565,1.565,0,0,0-.394-1.152,1.4,1.4,0,0,0-1.121-.424,1.377,1.377,0,0,0-.97.364,1.21,1.21,0,0,0-.333.576.623.623,0,0,1-.667.454h-1.848a.389.389,0,0,1-.394-.424,2.869,2.869,0,0,1,1.121-2.273Z" transform="translate(-109.754 -16.797)" fill="#ffae00"/>
</svg>
