<svg xmlns="http://www.w3.org/2000/svg" width="34.412" height="20.324" viewBox="0 0 34.412 20.324">
  <g id="Menu" transform="translate(-20 -56.683)">
    <path id="Path_2" data-name="Path 2" d="M84.445,244.709l23.053.122a1.528,1.528,0,1,1,0,3.056l-23.053-.122a1.537,1.537,0,0,1-1.528-1.528A1.51,1.51,0,0,1,84.445,244.709Z" transform="translate(129.025 304.569) rotate(180)" fill="#fff"/>
    <path id="Path_1" data-name="Path 1" d="M164.471,88.624h12.916a1.528,1.528,0,1,1,0,3.056H164.471a1.528,1.528,0,1,1,0-3.056Z" transform="translate(198.915 165.631) rotate(180)" fill="#4ad594"/>
    <path id="Path_3" data-name="Path 3" d="M49.888,166.667H81.244a1.528,1.528,0,0,1,0,3.056H49.888a1.536,1.536,0,0,1-1.528-1.528A1.51,1.51,0,0,1,49.888,166.667Z" transform="translate(102.771 235.1) rotate(180)" fill="#fff"/>
  </g>
</svg>
